<svg id="picko-logo" xmlns="http://www.w3.org/2000/svg" width="256" height="256" viewBox="0 0 256 256">
  <g id="SvgjsG1180" transform="translate(28.86 24.601)">
    <path id="Path_1" data-name="Path 1" d="M200.4,103.411a58.519,58.519,0,0,1-1.984,52.752,77.889,77.889,0,0,1-16.622,20.76,91.388,91.388,0,0,1-8.863,6.863c-3.032,1.975-5.938,3.85-9.045,5.487a116.025,116.025,0,0,1-68.3,13.584L87.951,247c-1.16,6.06-26.388,5.912-28.175-.242L38.892,112.1c-12.791,3.778-22.861,5.615-23.234,2.988l-.4-1.6L7.463,82.568,27.431,67.861A119.18,119.18,0,0,1,74.092,47.232a122.5,122.5,0,0,1,47.9-.4,119.77,119.77,0,0,1,43.838,17.56c3.264,2.326,6.515,4.646,9.578,7.208l4.468,4.029c1.514,1.351,2.862,2.662,4.376,4.264A82.19,82.19,0,0,1,200.4,103.41Zm-47.941,34.943a12.451,12.451,0,0,0-3.493-12.136,16.443,16.443,0,0,0-4.734-3.138c-1.241-.821-3.038-1.608-4.426-2.461-1.552-.759-3.2-1.373-4.753-2.072a54.841,54.841,0,0,0-20.833-3.044c-1.2.044-2.4.191-3.586.323l-9.772,56.509a79.8,79.8,0,0,0,40.02-17.986c1.715-1.4,3.31-3.032,4.8-4.508a45.335,45.335,0,0,0,3.809-4.583,21.993,21.993,0,0,0,2.966-6.9Z" transform="translate(-7.463 -44.663)" fill="#8dc6ff"/>
  </g>
</svg>
